# xmcd CD database file
#
# Track frame offsets:
#	150
#	20810
#	37387
#	53135
#	71302
#	86435
#	118667
#	135025
#	150122
#	162302
#	183327
#	194565
#	203282
#
# Disc length: 2929 seconds
#
# Revision: 1
# Processed by: cddbd v1.4PL0 Copyright (c) Steve Scherf et al.
# Submitted via: CDex 1.51
#
DISCID=a20b6f0d
DTITLE=Sophie Zelmani - Precious Burden
DYEAR=1998
DGENRE=Pop
TTITLE0=LEAVING
TTITLE1=BLACK DAY
TTITLE2=PRECIOUS BURDEN
TTITLE3=SO LONG
TTITLE4=EXCUSE ME
TTITLE5=GOT TO STOP
TTITLE6=BEFORE THE DAT'S GONE
TTITLE7=GOODBYE
TTITLE8=FOOLISH
TTITLE9=CURTAIN FALL
TTITLE10=WHO I AM
TTITLE11=LIFE
TTITLE12=VACATION
EXTD=YEAR: 1998
EXTT0=
EXTT1=
EXTT2=
EXTT3=
EXTT4=
EXTT5=
EXTT6=
EXTT7=
EXTT8=
EXTT9=
EXTT10=
EXTT11=
EXTT12=
PLAYORDER=
